<svg width="29" height="29" viewBox="0 0 29 29" fill="none" xmlns="http://www.w3.org/2000/svg">
<path d="M3.99293 11.3831C4.34388 11.8218 4.60709 12.3482 4.78257 12.8747C4.95805 13.4011 5.04578 14.0153 5.04578 14.6294C5.04578 15.2436 4.95805 15.8577 4.78257 16.3842C4.60709 16.9106 4.34388 17.437 3.99293 17.8757C3.55424 18.4899 3.64198 19.3673 4.25614 19.8059C4.87031 20.2446 5.74769 20.1569 6.18638 19.5427C6.7128 18.8408 7.06375 18.1389 7.4147 17.2615C7.76565 16.3842 7.85339 15.5068 7.85339 14.6294C7.85339 13.752 7.67792 12.8747 7.4147 11.9973C7.15149 11.2076 6.7128 10.418 6.18638 9.7161C5.74769 9.10194 4.87031 9.0142 4.25614 9.45289C3.64198 9.89158 3.55424 10.769 3.99293 11.3831Z" fill="#272A32"/>
<path d="M8.81851 8.83872C9.87136 10.5057 10.4855 12.5237 10.4855 14.6294C10.4855 16.7351 9.87136 18.7531 8.81851 20.4201C8.37982 21.0343 8.64303 21.9116 9.2572 22.3503C9.9591 22.789 10.7487 22.5258 11.1874 21.9116C12.5035 19.8059 13.2931 17.3493 13.2931 14.6294C13.2931 11.9973 12.5035 9.45288 11.1874 7.34718C10.7487 6.73301 9.87136 6.4698 9.2572 6.90849C8.64303 7.34718 8.37982 8.13682 8.81851 8.83872Z" fill="#272A32"/>
<path d="M13.9073 6.20659C15.3988 8.66325 16.1885 11.5586 16.1885 14.6294C16.1885 17.7002 15.3111 20.5956 13.9073 23.0522C13.5563 23.7541 13.7318 24.5438 14.4337 24.9825C15.1356 25.3334 15.9253 25.1579 16.3639 24.456C18.1187 21.5607 19.0838 18.2267 19.0838 14.6294C19.0838 11.0322 18.1187 7.69813 16.3639 4.80279C16.013 4.10088 15.1356 3.92541 14.4337 4.27636C13.7318 4.71505 13.5563 5.50469 13.9073 6.20659Z" fill="#272A32"/>
<path d="M18.996 3.57446C20.8385 6.82075 21.9791 10.5935 21.9791 14.6294C21.9791 18.6654 20.9263 22.4381 18.996 25.6844C18.6451 26.3863 18.8206 27.1759 19.5225 27.6146C20.2244 27.9656 21.014 27.7901 21.4527 27.0882C23.5584 23.4032 24.7867 19.1918 24.7867 14.6294C24.7867 10.0671 23.5584 5.85564 21.4527 2.17065C21.1018 1.46875 20.2244 1.29327 19.5225 1.64423C18.8206 1.99518 18.6451 2.87255 18.996 3.57446Z" fill="#272A32"/>
</svg>
