<?xml version="1.0" encoding="UTF-8" standalone="no"?>
<svg
   width="76"
   height="75"
   viewBox="0 0 76 75"
   fill="none"
   version="1.1"
   id="svg5"
   xmlns="http://www.w3.org/2000/svg"
   xmlns:svg="http://www.w3.org/2000/svg">
  <g
     clip-path="url(#clip0_475_160)"
     id="g5"
     style="fill:#ffffff">
    <path
       d="m 30.6746,26.4023 -3.7918,22.2519 h 6.0644 l 3.795,-22.2519 z"
       fill="#272A32"
       id="path1"
       style="fill:#ffffff" />
    <path
       d="M 21.7981,26.4266 15.8585,41.6017 15.2252,39.3104 C 14.0538,36.5495 10.7284,32.5846 6.82422,30.0858 l 5.43118,18.5567 6.4169,-0.0109 9.5506,-22.2097 z"
       fill="#272A32"
       id="path2"
       style="fill:#ffffff" />
    <path
       d="M 12.9156,28.0148 C 12.5631,26.6594 11.5414,26.2554 10.2733,26.207 H 0.870958 L 0.792969,26.65 C 8.10991,28.425 12.9515,32.702 14.9605,37.8446 Z"
       fill="#272A32"
       id="path3"
       style="fill:#ffffff" />
    <path
       d="m 49.0255,30.6638 c 1.984,-0.0312 3.4221,0.4024 4.5389,0.8516 l 0.5475,0.2574 0.8205,-4.8229 c -1.2011,-0.4507 -3.0837,-0.9343 -5.4328,-0.9343 -5.9926,0 -10.2165,3.0182 -10.2493,7.3435 -0.039,3.196 3.0088,4.9804 5.3111,6.0457 2.363,1.0918 3.1554,1.786 3.1445,2.7608 -0.0187,1.4896 -1.8842,2.1728 -3.6265,2.1728 -2.4286,0 -3.7185,-0.3354 -5.7104,-1.1652 l -0.7814,-0.3556 -0.8532,4.9804 c 1.4194,0.6223 4.0383,1.1573 6.757,1.1854 6.3748,0 10.5176,-2.9823 10.5612,-7.6039 0.0266,-2.5284 -1.5909,-4.4579 -5.0958,-6.0411 -2.1213,-1.0325 -3.419,-1.7188 -3.4065,-2.7608 0,-0.9249 1.1012,-1.9138 3.4752,-1.9138 z"
       fill="#272A32"
       id="path4"
       style="fill:#ffffff" />
    <path
       d="m 70.5003,26.4258 h -4.6856 c -1.4553,0 -2.5378,0.3962 -3.1773,1.8468 l -9.0046,20.3926 h 6.3686 c 0,0 1.0388,-2.7421 1.2743,-3.3427 0.6973,0 6.8849,0.0094 7.7662,0.0094 0.1809,0.7768 0.7393,3.3333 0.7393,3.3333 h 5.6262 z M 63.0211,40.768 c 0.4992,-1.2775 2.4161,-6.2189 2.4161,-6.2189 -0.0327,0.0609 0.4945,-1.2868 0.808,-2.1244 l 0.4087,1.9185 c 0,0 1.162,5.3127 1.4053,6.4248 z"
       fill="#272A32"
       id="path5"
       style="fill:#ffffff" />
  </g>
  <defs
     id="defs5">
    <clipPath
       id="clip0_475_160">
      <rect
         width="74.610603"
         height="74.610603"
         fill="#ffffff"
         transform="translate(0.796875,0.195312)"
         id="rect5"
         x="0"
         y="0" />
    </clipPath>
  </defs>
</svg>
